<svg width="173" height="215" viewBox="0 0 173 215" fill="none" xmlns="http://www.w3.org/2000/svg">
<g filter="url(#filter0_f_648_29664)">
<rect x="24.1875" y="178.5" width="124" height="12" fill="#7B7B7B"/>
<rect x="24.1875" y="178.5" width="124" height="12" stroke="#C3D223"/>
</g>
<rect x="25.1875" y="14.5" width="124" height="79" fill="#D1D1D1"/>
<path fill-rule="evenodd" clip-rule="evenodd" d="M25.1875 14.5V134.5H5.1875V61.9366L15.1891 46.5864L25.1875 14.5Z" fill="#EBEBEB"/>
<path fill-rule="evenodd" clip-rule="evenodd" d="M148.186 14.5V134.5H168.186V61.9366L158.184 46.5864L148.186 14.5Z" fill="#EBEBEB"/>
<path d="M5.1875 61.5H168.188V197.5C168.188 200.261 165.949 202.5 163.188 202.5H10.1875C7.42608 202.5 5.1875 200.261 5.1875 197.5V61.5Z" fill="white"/>
<path opacity="0.5" fill-rule="evenodd" clip-rule="evenodd" d="M54.1855 117.048C54.1855 116.348 54.5449 115.697 55.1667 115.376C56.5504 114.661 59.1941 113.5 61.7633 113.5C64.3316 113.5 66.8998 114.661 68.2381 115.375C68.8411 115.697 69.1855 116.335 69.1855 117.019C69.1855 118.629 67.3312 119.685 65.8162 119.139C64.5992 118.701 63.1682 118.346 61.7255 118.346C60.2543 118.346 58.783 118.715 57.5358 119.165C56.0237 119.711 54.1855 118.655 54.1855 117.048Z" fill="#7B7B7B"/>
<path opacity="0.5" fill-rule="evenodd" clip-rule="evenodd" d="M105.186 117.048C105.186 116.348 105.545 115.697 106.167 115.376C107.55 114.661 110.194 113.5 112.763 113.5C115.332 113.5 117.9 114.661 119.238 115.375C119.841 115.697 120.186 116.335 120.186 117.019C120.186 118.629 118.331 119.685 116.816 119.139C115.599 118.701 114.168 118.346 112.726 118.346C111.254 118.346 109.783 118.715 108.536 119.165C107.024 119.711 105.186 118.655 105.186 117.048Z" fill="#7B7B7B"/>
<ellipse opacity="0.5" cx="87.1855" cy="137.503" rx="16" ry="7.00303" fill="#7B7B7B"/>
<circle opacity="0.149343" cx="50.1855" cy="76.5" r="6" fill="#7B7B7B"/>
<circle opacity="0.149343" cx="123.186" cy="76.5" r="6" fill="#7B7B7B"/>
<path d="M50.1855 76.1926V39C50.1855 18.8416 66.5272 2.5 86.6855 2.5C106.844 2.5 123.186 18.8416 123.186 39V76.1926" stroke="#C3D223" stroke-width="5" stroke-linecap="round" stroke-linejoin="round"/>
<defs>
<filter id="filter0_f_648_29664" x="0.000555038" y="154.313" width="172.372" height="60.3739" filterUnits="userSpaceOnUse" color-interpolation-filters="sRGB">
<feFlood flood-opacity="0" result="BackgroundImageFix"/>
<feBlend mode="normal" in="SourceGraphic" in2="BackgroundImageFix" result="shape"/>
<feGaussianBlur stdDeviation="12.0935" result="effect1_foregroundBlur_648_29664"/>
</filter>
</defs>
</svg>
