<svg width="795" height="651" viewBox="0 0 795 651" fill="none" xmlns="http://www.w3.org/2000/svg">
<g id="No Results">
<g id="circle">
<path id="Stroke 1" d="M24.9023 298.036V304.786" stroke="#D2D8DF" stroke-width="2.19075" stroke-linecap="round"/>
<g id="Group 8">
<path id="Stroke 2" d="M9.73828 301.692L15.254 307.37" stroke="#D2D8DF" stroke-width="2.19075" stroke-linecap="round"/>
<path id="Stroke 4" d="M3.28711 316.807H11.0863" stroke="#D2D8DF" stroke-width="2.19075" stroke-linecap="round"/>
<path id="Stroke 6" d="M9.10547 332.191L14.6212 326.513" stroke="#D2D8DF" stroke-width="2.19075" stroke-linecap="round"/>
</g>
<path id="Stroke 9" d="M24.9023 334.036V327.286" stroke="#D2D8DF" stroke-width="2.19075" stroke-linecap="round"/>
<path id="Stroke 10" d="M36.1523 329.536L31.6523 325.036" stroke="#D2D8DF" stroke-width="2.19075" stroke-linecap="round"/>
<path id="Stroke 11" d="M45.1523 318.286H38.4023" stroke="#D2D8DF" stroke-width="2.19075" stroke-linecap="round"/>
<path id="Stroke 12" d="M40.6523 302.536L36.1523 307.036" stroke="#D2D8DF" stroke-width="2.19075" stroke-linecap="round"/>
<path id="Stroke 13" d="M387.152 3.28601V7.78601" stroke="#D2D8DF" stroke-width="2.19075" stroke-linecap="round"/>
<path id="Stroke 15" d="M373.652 16.786H378.152" stroke="#D2D8DF" stroke-width="2.19075" stroke-linecap="round"/>
<path id="Stroke 16" d="M387.152 30.286V25.786" stroke="#D2D8DF" stroke-width="2.19075" stroke-linecap="round"/>
<path id="Stroke 17" d="M398.402 16.786H393.902" stroke="#D2D8DF" stroke-width="2.19075" stroke-linecap="round"/>
<path id="Stroke 18" d="M126.152 192.286V199.036" stroke="#D2D8DF" stroke-width="2.19075" stroke-linecap="round"/>
<path id="Stroke 19" d="M105.902 212.536H112.652" stroke="#D2D8DF" stroke-width="2.19075" stroke-linecap="round"/>
<path id="Stroke 20" d="M126.152 230.536V223.786" stroke="#D2D8DF" stroke-width="2.19075" stroke-linecap="round"/>
<path id="Stroke 21" d="M144.152 212.536H137.402" stroke="#D2D8DF" stroke-width="2.19075" stroke-linecap="round"/>
<g id="Group 42">
<path id="Stroke 22" d="M610.47 437.624C615.847 437.624 620.208 441.986 620.208 447.364C620.208 452.745 615.847 457.105 610.47 457.105C605.093 457.105 600.732 452.745 600.732 447.364" stroke="#D2D8DF" stroke-width="2.19075" stroke-linecap="round"/>
<path id="Fill 26" fill-rule="evenodd" clip-rule="evenodd" d="M655.037 349.254C660.819 347.45 669.682 340.379 671.734 332.77C673.594 339.496 681.393 347.45 688.43 348.052C680.509 350.857 672.935 359.189 671.734 365.735C670.916 359.063 660.441 350.226 655.037 349.254Z" fill="#EBECEE"/>
<path id="Fill 28" fill-rule="evenodd" clip-rule="evenodd" d="M61.5117 434.623C64.4037 433.722 68.8333 430.187 69.8591 426.383C70.7893 429.744 74.688 433.722 78.2065 434.023C74.2467 435.424 70.4608 439.591 69.8591 442.864C69.4503 439.528 64.2127 435.109 61.5117 434.623Z" fill="#EBECEE"/>
<path id="Fill 30" fill-rule="evenodd" clip-rule="evenodd" d="M115.18 121.629C115.18 125.802 111.799 129.182 107.629 129.182C103.457 129.182 100.078 125.802 100.078 121.629C100.078 117.458 103.457 114.077 107.629 114.077C111.799 114.077 115.18 117.458 115.18 121.629Z" fill="#D1D8DF"/>
<path id="Fill 32" fill-rule="evenodd" clip-rule="evenodd" d="M619.395 141.91C619.395 148.882 613.743 154.533 606.775 154.533C599.803 154.533 594.152 148.882 594.152 141.91C594.152 134.938 599.803 129.286 606.775 129.286C613.743 129.286 619.395 134.938 619.395 141.91Z" fill="#EBECEE"/>
<path id="Fill 34" fill-rule="evenodd" clip-rule="evenodd" d="M794.208 107.707C794.208 113.239 789.727 117.721 784.199 117.721C778.669 117.721 774.188 113.239 774.188 107.707C774.188 102.176 778.669 97.6937 784.199 97.6937C789.727 97.6937 794.208 102.176 794.208 107.707Z" fill="#EBECEE"/>
<path id="Stroke 36" fill-rule="evenodd" clip-rule="evenodd" d="M256.3 575.388C256.3 578.875 253.475 581.701 249.989 581.701C246.505 581.701 243.68 578.875 243.68 575.388C243.68 571.901 246.505 569.075 249.989 569.075C253.475 569.075 256.3 571.901 256.3 575.388Z" stroke="#D2D8DF" stroke-width="2.19075" stroke-linecap="round"/>
<path id="Stroke 38" fill-rule="evenodd" clip-rule="evenodd" d="M252.541 73.1071C252.541 77.28 249.16 80.66 244.99 80.66C240.82 80.66 237.439 77.28 237.439 73.1071C237.439 68.9362 240.82 65.5543 244.99 65.5543C249.16 65.5543 252.541 68.9362 252.541 73.1071Z" stroke="#D2D8DF" stroke-width="2.19075" stroke-linecap="round"/>
<path id="Stroke 40" fill-rule="evenodd" clip-rule="evenodd" d="M445.149 645.292C440.324 647.128 434.924 644.704 433.088 639.879C431.253 635.053 433.675 629.65 438.502 627.816C443.325 625.979 448.725 628.402 450.56 633.228C452.398 638.055 449.974 643.456 445.149 645.292Z" stroke="#D2D8DF" stroke-width="2.19075" stroke-linecap="round"/>
</g>
</g>
<g id="search">
<g id="documents">
<path id="Fill 1" fill-rule="evenodd" clip-rule="evenodd" d="M442.274 466.786H257.764C244.777 466.786 234.146 456.124 234.146 443.094V179.973C234.146 166.942 244.777 156.286 257.764 156.286H442.274C455.266 156.286 465.896 166.942 465.896 179.973V443.094C465.896 456.124 455.266 466.786 442.274 466.786Z" fill="#E0E2EE"/>
<path id="Fill 3" fill-rule="evenodd" clip-rule="evenodd" d="M426.524 478.036H242.014C229.027 478.036 218.396 467.374 218.396 454.344V191.223C218.396 178.192 229.027 167.536 242.014 167.536H426.524C439.516 167.536 450.146 178.192 450.146 191.223V454.344C450.146 467.374 439.516 478.036 426.524 478.036Z" fill="#E8EBF2"/>
<path id="Fill 5" fill-rule="evenodd" clip-rule="evenodd" d="M411.204 486.917H226.312C213.299 486.917 202.646 476.299 202.646 463.323V201.292C202.646 188.315 213.299 177.703 226.312 177.703H411.204C424.223 177.703 434.876 188.315 434.876 201.292V463.323C434.876 476.299 424.223 486.917 411.204 486.917Z" fill="#D8DBEA"/>
<path id="Fill 8" fill-rule="evenodd" clip-rule="evenodd" d="M411.204 486.917H226.312C213.299 486.917 202.646 476.299 202.646 463.323V201.292C202.646 188.315 213.299 177.703 226.312 177.703H411.204C424.223 177.703 434.876 188.315 434.876 201.292V463.323C434.876 476.299 424.223 486.917 411.204 486.917Z" fill="#F1F2F7"/>
<path id="Fill 11" fill-rule="evenodd" clip-rule="evenodd" d="M384.554 257.536H247.989C244.089 257.536 240.896 254.499 240.896 250.789C240.896 247.073 244.089 244.036 247.989 244.036H384.554C388.454 244.036 391.646 247.073 391.646 250.789C391.646 254.499 388.454 257.536 384.554 257.536Z" fill="#E0E2EE"/>
<path id="Fill 13" fill-rule="evenodd" clip-rule="evenodd" d="M384.554 298.036H247.989C244.089 298.036 240.896 294.999 240.896 291.289C240.896 287.573 244.089 284.536 247.989 284.536H384.554C388.454 284.536 391.646 287.573 391.646 291.289C391.646 294.999 388.454 298.036 384.554 298.036Z" fill="#E0E2EE"/>
<path id="Fill 15" fill-rule="evenodd" clip-rule="evenodd" d="M384.554 338.536H247.989C244.089 338.536 240.896 335.499 240.896 331.789C240.896 328.078 244.089 325.036 247.989 325.036H384.554C388.454 325.036 391.646 328.078 391.646 331.789C391.646 335.499 388.454 338.536 384.554 338.536Z" fill="#E0E2EE"/>
<path id="Fill 17" fill-rule="evenodd" clip-rule="evenodd" d="M384.554 379.036H247.989C244.089 379.036 240.896 375.999 240.896 372.289C240.896 368.573 244.089 365.536 247.989 365.536H384.554C388.454 365.536 391.646 368.573 391.646 372.289C391.646 375.999 388.454 379.036 384.554 379.036Z" fill="#E0E2EE"/>
<path id="Fill 19" fill-rule="evenodd" clip-rule="evenodd" d="M319.274 419.536H248.019C244.103 419.536 240.896 416.499 240.896 412.789C240.896 409.073 244.103 406.036 248.019 406.036H319.274C323.19 406.036 326.396 409.073 326.396 412.789C326.396 416.499 323.19 419.536 319.274 419.536Z" fill="#E0E2EE"/>
</g>
<g id="search_2">
<path id="Fill 21" fill-rule="evenodd" clip-rule="evenodd" d="M463.095 367.194C435.788 394.497 393.512 397.577 362.82 376.497C358.898 373.755 355.165 370.675 351.683 367.194C349.891 365.408 348.202 363.564 346.61 361.623C343.426 357.747 340.638 353.614 338.353 349.343C334.328 342.129 331.59 334.475 330.096 326.563C325.275 301.75 332.484 275.043 351.683 255.852C370.928 236.605 397.641 229.443 422.457 234.217C430.365 235.757 438.026 238.494 445.241 242.473C449.519 244.809 453.596 247.597 457.478 250.78C459.413 252.366 461.257 254.06 463.044 255.852C466.531 259.333 469.657 263.06 472.348 266.988C493.438 297.668 490.351 339.942 463.095 367.194Z" fill="white" fill-opacity="0.1"/>
<path id="Fill 23" fill-rule="evenodd" clip-rule="evenodd" d="M455.454 361.816C427.044 390.231 381.003 390.226 352.588 361.816C324.21 333.438 324.21 287.392 352.625 258.983C381.003 230.604 427.044 230.604 455.422 258.983C483.832 287.392 483.832 333.438 455.454 361.816ZM470.034 244.386C433.568 207.919 374.475 207.919 338.008 244.386C301.547 280.847 301.515 339.977 337.977 376.444C371.165 409.622 423.185 412.614 459.773 385.373C463.347 382.708 466.788 379.721 470.071 376.444C473.349 373.161 476.336 369.719 478.995 366.145C506.236 329.552 503.218 277.569 470.034 244.386Z" fill="#E0E2EE"/>
<path id="Fill 25" fill-rule="evenodd" clip-rule="evenodd" d="M613.546 513.905L612.015 515.436C601.887 525.569 585.301 525.569 575.167 515.436L481.646 421.915L520.025 383.536L613.546 477.057C623.68 487.19 623.68 503.771 613.546 513.905Z" fill="#C3D223"/>
<path id="Fill 27" fill-rule="evenodd" clip-rule="evenodd" d="M481.011 363.286L508.646 390.922L489.027 410.536L461.396 382.9C465.043 380.181 468.55 377.134 471.905 373.789C475.249 370.444 478.297 366.933 481.011 363.286Z" fill="#E0E2EE"/>
<path id="Fill 29" fill-rule="evenodd" clip-rule="evenodd" d="M612.146 475.907L574.012 514.036L567.146 507.165L605.276 469.036L612.146 475.907Z" fill="#8A9519"/>
<path id="Fill 31" fill-rule="evenodd" clip-rule="evenodd" d="M522.146 384.856L482.968 424.036L477.146 418.216L516.325 379.036L522.146 384.856Z" fill="#8A9519"/>
<path id="Fill 33" fill-rule="evenodd" clip-rule="evenodd" d="M436.646 249.208L340.564 345.286C336.945 338.801 334.485 331.919 333.146 324.806L416.166 241.786C423.274 243.176 430.161 245.631 436.646 249.208Z" fill="white" fill-opacity="0.5"/>
<path id="Fill 35" fill-rule="evenodd" clip-rule="evenodd" d="M468.146 272.045L364.27 370.036C360.55 367.587 357.01 364.831 353.708 361.716C352.008 360.112 350.401 358.468 348.896 356.731L454.038 257.536C455.879 258.96 457.627 260.477 459.322 262.08C462.624 265.195 465.594 268.53 468.146 272.045Z" fill="white" fill-opacity="0.5"/>
</g>
</g>
</g>
</svg>
