<svg width="140" height="123" viewBox="0 0 140 123" fill="none" xmlns="http://www.w3.org/2000/svg">
<path fill-rule="evenodd" clip-rule="evenodd" d="M79.8759 103.5H18.3724C14.0434 103.5 10.5 99.9461 10.5 95.6026V7.89562C10.5 3.55214 14.0434 0 18.3724 0H79.8759C84.2066 0 87.75 3.55214 87.75 7.89562V95.6026C87.75 99.9461 84.2066 103.5 79.8759 103.5Z" fill="#E0E2EE"/>
<path fill-rule="evenodd" clip-rule="evenodd" d="M74.6259 107.25H13.1224C8.79345 107.25 5.25 103.696 5.25 99.3526V11.6456C5.25 7.30214 8.79345 3.75 13.1224 3.75H74.6259C78.9566 3.75 82.5 7.30214 82.5 11.6456V99.3526C82.5 103.696 78.9566 107.25 74.6259 107.25Z" fill="#E8EBF2"/>
<path fill-rule="evenodd" clip-rule="evenodd" d="M69.5193 110.21H7.88864C3.55077 110.21 0 106.671 0 102.346V15.0018C0 10.6763 3.55077 7.13892 7.88864 7.13892H69.5193C73.8589 7.13892 77.4097 10.6763 77.4097 15.0018V102.346C77.4097 106.671 73.8589 110.21 69.5193 110.21Z" fill="#D8DBEA"/>
<path fill-rule="evenodd" clip-rule="evenodd" d="M69.5193 110.21H7.88864C3.55077 110.21 0 106.671 0 102.346V15.0018C0 10.6763 3.55077 7.13892 7.88864 7.13892H69.5193C73.8589 7.13892 77.4097 10.6763 77.4097 15.0018V102.346C77.4097 106.671 73.8589 110.21 69.5193 110.21Z" fill="#F1F2F7"/>
<path fill-rule="evenodd" clip-rule="evenodd" d="M60.6359 33.75H15.1141C13.8141 33.75 12.75 32.7376 12.75 31.5008C12.75 30.2624 13.8141 29.25 15.1141 29.25H60.6359C61.9359 29.25 63 30.2624 63 31.5008C63 32.7376 61.9359 33.75 60.6359 33.75Z" fill="#E0E2EE"/>
<path fill-rule="evenodd" clip-rule="evenodd" d="M60.6359 47.25H15.1141C13.8141 47.25 12.75 46.2376 12.75 45.0008C12.75 43.7624 13.8141 42.75 15.1141 42.75H60.6359C61.9359 42.75 63 43.7624 63 45.0008C63 46.2376 61.9359 47.25 60.6359 47.25Z" fill="#E0E2EE"/>
<path fill-rule="evenodd" clip-rule="evenodd" d="M60.6359 60.75H15.1141C13.8141 60.75 12.75 59.7376 12.75 58.5008C12.75 57.2641 13.8141 56.25 15.1141 56.25H60.6359C61.9359 56.25 63 57.2641 63 58.5008C63 59.7376 61.9359 60.75 60.6359 60.75Z" fill="#E0E2EE"/>
<path fill-rule="evenodd" clip-rule="evenodd" d="M60.6359 74.25H15.1141C13.8141 74.25 12.75 73.2376 12.75 72.0008C12.75 70.7624 13.8141 69.75 15.1141 69.75H60.6359C61.9359 69.75 63 70.7624 63 72.0008C63 73.2376 61.9359 74.25 60.6359 74.25Z" fill="#E0E2EE"/>
<path fill-rule="evenodd" clip-rule="evenodd" d="M38.8757 87.75H15.1243C13.8187 87.75 12.75 86.7376 12.75 85.5008C12.75 84.2624 13.8187 83.25 15.1243 83.25H38.8757C40.1813 83.25 41.25 84.2624 41.25 85.5008C41.25 86.7376 40.1813 87.75 38.8757 87.75Z" fill="#E0E2EE"/>
<path fill-rule="evenodd" clip-rule="evenodd" d="M86.8162 70.3026C77.7137 79.4035 63.6219 80.4302 53.3913 73.4037C52.0839 72.4896 50.8394 71.4629 49.6789 70.3026C49.0815 69.7072 48.5184 69.0927 47.9878 68.4457C46.9266 67.1538 45.9971 65.7759 45.2355 64.3523C43.8937 61.9478 42.9813 59.3963 42.4832 56.7589C40.876 48.4881 43.2791 39.5856 49.6789 33.1888C56.094 26.7729 64.998 24.3855 73.2703 25.9771C75.9062 26.4904 78.46 27.4026 80.8649 28.7289C82.2907 29.5075 83.6497 30.4369 84.9438 31.498C85.5889 32.0266 86.2035 32.5915 86.799 33.1888C87.9614 34.3491 89.0036 35.5914 89.9007 36.9005C96.9303 47.1274 95.9016 61.2188 86.8162 70.3026Z" fill="white" fill-opacity="0.1"/>
<path fill-rule="evenodd" clip-rule="evenodd" d="M84.2691 68.5101C74.7991 77.9818 59.4523 77.98 49.9806 68.5101C40.5212 59.0507 40.5212 43.7021 49.993 34.2322C59.4523 24.7728 74.7991 24.7728 84.2585 34.2322C93.7284 43.7021 93.7284 59.0507 84.2691 68.5101ZM89.1292 29.3666C76.9737 17.2111 57.2761 17.2111 45.1206 29.3666C32.9669 41.5204 32.9563 61.2304 45.11 73.3859C56.173 84.4453 73.5128 85.4427 85.7088 76.3622C86.9001 75.474 88.0472 74.4784 89.1415 73.3859C90.2341 72.2915 91.2297 71.1444 92.1161 69.9531C101.197 57.7553 100.19 40.4278 89.1292 29.3666Z" fill="#E0E2EE"/>
<path fill-rule="evenodd" clip-rule="evenodd" d="M136.967 119.206L136.456 119.717C133.08 123.094 127.551 123.094 124.174 119.717L93 88.543L105.793 75.75L136.967 106.924C140.344 110.301 140.344 115.828 136.967 119.206Z" fill="#C3D223"/>
<path fill-rule="evenodd" clip-rule="evenodd" d="M92.7881 69L102 78.2119L95.4601 84.75L86.25 75.5381C87.4655 74.6318 88.6343 73.6159 89.7528 72.501C90.8677 71.3861 91.8836 70.2155 92.7881 69Z" fill="#E0E2EE"/>
<path fill-rule="evenodd" clip-rule="evenodd" d="M136.5 106.54L123.788 119.25L121.5 116.96L134.21 104.25L136.5 106.54Z" fill="#8A9519"/>
<path fill-rule="evenodd" clip-rule="evenodd" d="M106.5 76.1901L93.4403 89.25L91.5 87.3099L104.56 74.25L106.5 76.1901Z" fill="#8A9519"/>
<path fill-rule="evenodd" clip-rule="evenodd" d="M78 30.974L45.9724 63C44.7662 60.8383 43.9461 58.5445 43.5 56.1734L71.1731 28.5C73.5425 28.9632 75.8382 29.7816 78 30.974Z" fill="white" fill-opacity="0.5"/>
<path fill-rule="evenodd" clip-rule="evenodd" d="M88.5 38.5863L53.8747 71.25C52.6347 70.4337 51.4544 69.5149 50.3538 68.4767C49.7872 67.9421 49.2514 67.394 48.75 66.815L83.7971 33.75C84.4108 34.2247 84.9937 34.7302 85.5584 35.2648C86.659 36.3031 87.6492 37.4148 88.5 38.5863Z" fill="white" fill-opacity="0.5"/>
</svg>
